# xmcd
#
# Track frame offsets: 
#        150
#        12192
#        20931
#        30992
#        53072
#        71815
#        85587
#        94840
#        108915
#        120990
#        134550
#        150712
#        166807
#        178695
#        194357
#        210452
#        223322
#        236630
#        245560
#        260604
#        274752
#
# Disc length: 3828 seconds
#
# Revision: 1
# Processed by: cddbd v1.5.2PL0 Copyright (c) Steve Scherf et al.
# Submitted via: ExactAudioCopy v1.3
#
DISCID=290ef215
DTITLE=Dr. Feelgood - Live At The BBC
DYEAR=2018
DGENRE=R&B
TTITLE0=My Baby, Your Baby
TTITLE1=I'm Talking About You
TTITLE2=One Weekend
TTITLE3=Rock Me Baby
TTITLE4=Bony Moronie
TTITLE5=She Does It Right
TTITLE6=Twenty Yards Behind
TTITLE7=The More I Give
TTITLE8=Boom Boom
TTITLE9=All Through The City
TTITLE10=Talk To Me Baby
TTITLE11=Route 66
TTITLE12=I Can Tell
TTITLE13=Going Back Home
TTITLE14=Don't You Just Know It
TTITLE15=Roxette
TTITLE16=Another Man
TTITLE17=I Don't Mind
TTITLE18=Riot In Cell Block #9
TTITLE19=Rollin' And Tumblin'
TTITLE20=You Shouldn't Call The Doctor (If You Can't Afford The Bills)
EXTD=YEAR: 2018
EXTT0=
EXTT1=
EXTT2=
EXTT3=
EXTT4=
EXTT5=
EXTT6=
EXTT7=
EXTT8=
EXTT9=
EXTT10=
EXTT11=
EXTT12=
EXTT13=
EXTT14=
EXTT15=
EXTT16=
EXTT17=
EXTT18=
EXTT19=
EXTT20=
PLAYORDER=
